<svg id="Layer_1" data-name="Layer 1" xmlns="http://www.w3.org/2000/svg" viewBox="0 0 472 82"><defs><style>.cls-1{fill:none;stroke:#f6ac1b;stroke-miterlimit:10;stroke-width:9px;}.cls-2{fill:#38b5e8;}</style></defs><title>Banner</title><circle class="cls-1" cx="39.7" cy="41" r="34"/><path d="M102,40.5h11v4.6H96.1V19.5H102Z"/><path d="M127,42.3a6.2,6.2,0,0,1-5.3,3.2,5.6,5.6,0,0,1-4.6-2.1c-1.1-1.4-1.7-3.5-1.7-6.4V26.1h5.9V37a5.8,5.8,0,0,0,.6,3.1,2.2,2.2,0,0,0,1.8.8,4.7,4.7,0,0,0,1.7-.3,2.8,2.8,0,0,0,1.2-.8V26.1h5.9v19h-4.8Z"/><path d="M141.4,26.1l.2,2.5a5.8,5.8,0,0,1,2.3-2.1,6.2,6.2,0,0,1,3.1-.8,5.6,5.6,0,0,1,3,.8,4.8,4.8,0,0,1,2,2.4,7.3,7.3,0,0,1,2.2-2.4,6.7,6.7,0,0,1,3.3-.8,5.2,5.2,0,0,1,4.3,2c1.1,1.4,1.6,3.4,1.6,6.2V45.1h-5.9V33.9a4.6,4.6,0,0,0-.6-2.8,2.1,2.1,0,0,0-1.7-.8,4.1,4.1,0,0,0-1.6.3,3.1,3.1,0,0,0-1.1.9V32a.6.6,0,0,1,.1.4V45.1h-6V33.9a5.8,5.8,0,0,0-.5-2.8,2.2,2.2,0,0,0-1.8-.8,3.2,3.2,0,0,0-1.4.3,2.7,2.7,0,0,0-1.2.9V45.1h-5.9v-19Z"/><path d="M166,35.4a10.3,10.3,0,0,1,2.4-7,8.8,8.8,0,0,1,6.8-2.7,8.7,8.7,0,0,1,6.8,2.7,10.3,10.3,0,0,1,2.4,7v.4a10.1,10.1,0,0,1-2.4,7,8.7,8.7,0,0,1-6.8,2.7,8.8,8.8,0,0,1-6.8-2.7,10.1,10.1,0,0,1-2.4-7Zm6,.4a7.6,7.6,0,0,0,.7,3.7,2.9,2.9,0,0,0,5,0,7.5,7.5,0,0,0,.8-3.7v-.4a7.8,7.8,0,0,0-.8-3.7,2.9,2.9,0,0,0-5,0,7.9,7.9,0,0,0-.7,3.7Z"/><path d="M197,39.8a1.7,1.7,0,0,0-.8-1.3,9.4,9.4,0,0,0-3-1,11.6,11.6,0,0,1-5-2,4.7,4.7,0,0,1-1.7-3.8,5.1,5.1,0,0,1,2.2-4.2,8.5,8.5,0,0,1,5.7-1.8,9.9,9.9,0,0,1,6,1.7,5.3,5.3,0,0,1,2.2,4.4h-5.8a2.4,2.4,0,0,0-.6-1.7,2.5,2.5,0,0,0-1.9-.6,2.5,2.5,0,0,0-1.5.5,1.8,1.8,0,0,0-.6,1.3,1.5,1.5,0,0,0,.7,1.3,7.2,7.2,0,0,0,2.9,1,11.1,11.1,0,0,1,5.2,2,4.8,4.8,0,0,1,1.7,3.9,5.1,5.1,0,0,1-2.3,4.2,9.9,9.9,0,0,1-6,1.7,9.2,9.2,0,0,1-6.2-2,5.3,5.3,0,0,1-2.1-4.4h5.4a2.5,2.5,0,0,0,.8,2,4.5,4.5,0,0,0,2.2.5,3,3,0,0,0,1.8-.4A1.7,1.7,0,0,0,197,39.8Z"/><path d="M100.4,58.4c0-.2,0-.5-.1-.6l-.4-.6a2,2,0,0,0-.8-.4l-1.2-.4-1.3-.5-.9-.5a1.9,1.9,0,0,1-.6-.7,1.6,1.6,0,0,1-.2-1,1.8,1.8,0,0,1,.2-1l.6-.7a3.1,3.1,0,0,1,1-.5l1.3-.2,1.3.2,1,.6a2.4,2.4,0,0,1,.6.9,2,2,0,0,1,.2,1.1h-.7a1.9,1.9,0,0,0-.2-.8,1.8,1.8,0,0,0-.5-.7l-.7-.4a1.8,1.8,0,0,0-1-.2H97a2,2,0,0,0-.8.4l-.4.5a2,2,0,0,0-.1.7,1.3,1.3,0,0,0,.1.6,1,1,0,0,0,.4.5l.8.5,1.1.4a4,4,0,0,1,1.3.4l1,.6a1.3,1.3,0,0,1,.6.7,2.6,2.6,0,0,1,0,2,2.7,2.7,0,0,1-.7.8l-1,.5H97.2l-.8-.3-.7-.3-.6-.6a1.6,1.6,0,0,1-.4-.7,1.9,1.9,0,0,1-.1-.8h.8a1.3,1.3,0,0,0,.2.9l.6.7.9.4H98l1-.2a1.9,1.9,0,0,0,.8-.3,1.3,1.3,0,0,0,.4-.6A.8.8,0,0,0,100.4,58.4Z"/><path d="M103.4,53.8v1.1l.4-.5.5-.4.6-.2h.7a2.5,2.5,0,0,1,1.3.3,1.6,1.6,0,0,1,.8,1l.4-.5.5-.4.7-.3H111a1.8,1.8,0,0,1,.7.5,2,2,0,0,1,.4.8,2,2,0,0,1,.2,1.1v4.5h-.8V56.2a2.8,2.8,0,0,0-.1-.9l-.3-.6-.6-.3H109l-.6.5a1,1,0,0,0-.4.5,1.7,1.7,0,0,0-.1.7v4.5h-.8V56.2a2.2,2.2,0,0,0-.1-.9,1,1,0,0,0-.4-.5.5.5,0,0,0-.5-.3h-1.4a.9.9,0,0,0-.6.4,1,1,0,0,0-.4.5l-.3.6v4.7h-.7V53.8Z"/><path d="M118.6,60.7a.6.6,0,0,1-.1-.4,1.3,1.3,0,0,1-.1-.6l-.4.5-.5.3-.7.2h-1.6l-.7-.4-.5-.6a2.2,2.2,0,0,1-.1-.8c0-.4,0-.7.2-.9a1.3,1.3,0,0,1,.6-.7l1-.4,1.3-.2h1.4v-.8a1.2,1.2,0,0,0-.4-1.1,2,2,0,0,0-1.4-.5l-.7.2a.9.9,0,0,0-.6.3.8.8,0,0,0-.4.4.9.9,0,0,0-.1.5H114a1.9,1.9,0,0,1,.2-.7,2,2,0,0,1,.6-.7l.8-.4,1.1-.2h1l.8.5a1.3,1.3,0,0,1,.5.7,2.4,2.4,0,0,1,.2.9V60c0,.1.1.2.1.3a.4.4,0,0,0,.1.3h-.8Zm-2.4-.5.7-.2.7-.2.5-.5.3-.5V57.3h-2.3l-.8.3a1.2,1.2,0,0,0-.5.5,1.4,1.4,0,0,0-.2.6,4.3,4.3,0,0,0,.1.5l.3.5.5.2Z"/><path d="M124.4,54.5h-1.3l-.5.4a1,1,0,0,0-.4.5,3.3,3.3,0,0,0-.3.6v4.7h-.7V53.8h.7v1.1a2.4,2.4,0,0,1,.8-.9,2.1,2.1,0,0,1,1.2-.3h.5Z"/><path d="M127.1,52.1v1.7h1.4v.7h-1.4v5.1l.2.4h1.3v.6h-1.4a.5.5,0,0,1-.5-.3l-.3-.5a2.2,2.2,0,0,1-.1-.9V54.5H125v-.7h1.3V52.1Z"/><path d="M134.2,60h4.5v.7h-5.3V51.5h.8Z"/><path d="M140,51.8l.2-.3.3-.2.4.2.2.3a.5.5,0,0,1-.2.4l-.4.2-.3-.2A.5.5,0,0,1,140,51.8Zm.9,8.9h-.7V53.8h.7Z"/><path d="M142.7,57.2a3.2,3.2,0,0,1,.2-1.4,2.8,2.8,0,0,1,.5-1.1,1.8,1.8,0,0,1,.8-.7,2,2,0,0,1,1.1-.3,2.8,2.8,0,0,1,1.3.3l.9.8v-1h.7v6.8a5,5,0,0,1-.2,1.2,4.1,4.1,0,0,1-.5.9l-.9.5a2,2,0,0,1-1.1.2h-.7l-.7-.3-.5-.3c-.2-.2-.4-.3-.5-.5l.4-.5.9.8,1,.2.9-.2.6-.4a1.6,1.6,0,0,0,.4-.7,2.2,2.2,0,0,0,.1-.9v-.8a3,3,0,0,1-.8.8l-1.3.2-1.1-.2a2.7,2.7,0,0,1-.8-.7,5.4,5.4,0,0,1-.5-1.1,3.6,3.6,0,0,1-.2-1.5Zm.7.1a5,5,0,0,0,.2,1.2,3.2,3.2,0,0,0,.3.9,1.8,1.8,0,0,0,.7.5,1.2,1.2,0,0,0,.9.3h.7l.5-.3a.8.8,0,0,0,.4-.4.5.5,0,0,0,.3-.5V55.7c0-.2-.1-.3-.2-.5s-.3-.3-.4-.4a.9.9,0,0,0-.6-.3h-.7c-.4,0-.7,0-.9.2a1.3,1.3,0,0,0-.7.6,1.9,1.9,0,0,0-.3.9,3.6,3.6,0,0,0-.2,1.1Z"/><path d="M150.9,55c.2-.2.3-.4.5-.5a1,1,0,0,1,.5-.4c.2-.2.4-.2.6-.3h1.6a1.8,1.8,0,0,1,.7.5,2,2,0,0,1,.4.8,3.6,3.6,0,0,1,.2,1.1v4.5h-.8V56.2a2.8,2.8,0,0,0-.1-.9l-.3-.5c-.2-.2-.3-.3-.5-.3h-1.4a.9.9,0,0,0-.6.4l-.5.5-.3.6v4.7h-.7V50.9h.7Z"/><path d="M158.5,52.1v1.7h1.4v.7h-1.4V59c0,.3,0,.5.1.6a.5.5,0,0,0,.2.4H160v.6h-1.4a.5.5,0,0,1-.4-.3.5.5,0,0,1-.3-.5,2,2,0,0,1-.2-.9V54.5h-1.2v-.7h1.2V52.1Z"/><path d="M161.5,51.8a.4.4,0,0,1,.1-.3l.4-.2.4.2a.4.4,0,0,1,.1.3c0,.2,0,.3-.1.4l-.4.2-.4-.2C161.5,52.1,161.5,52,161.5,51.8Zm.9,8.9h-.8V53.8h.8Z"/><path d="M165.1,53.8V55a2.9,2.9,0,0,1,.9-.9l.6-.3h1.6a1.8,1.8,0,0,1,.7.5,2,2,0,0,1,.4.8,3.6,3.6,0,0,1,.2,1.1v4.5h-.8V56.2a2.8,2.8,0,0,0-.1-.9l-.3-.5a.5.5,0,0,0-.5-.3h-1.4l-.6.4a1,1,0,0,0-.4.5.9.9,0,0,0-.3.6v4.7h-.8V53.8Z"/><path d="M171.3,57.2a6.1,6.1,0,0,1,.1-1.4,2.9,2.9,0,0,1,.6-1.1,1.8,1.8,0,0,1,.8-.7,2,2,0,0,1,1.1-.3,2.8,2.8,0,0,1,1.3.3,3,3,0,0,1,.8.8v-1h.7v6.8a5,5,0,0,1-.2,1.2,2.4,2.4,0,0,1-.6.9l-.8.5a2.3,2.3,0,0,1-1.2.2h-.6l-.7-.3-.6-.3-.5-.5.5-.5a2.4,2.4,0,0,0,.9.8l1,.2.8-.2.7-.4a1.6,1.6,0,0,0,.4-.7,2.2,2.2,0,0,0,.1-.9v-.8a2.4,2.4,0,0,1-.9.8l-1.2.2-1.1-.2a2.7,2.7,0,0,1-.8-.7,6,6,0,0,1-.6-1.1,7.1,7.1,0,0,1-.1-1.5Zm.7.1c0,.4.1.8.1,1.2a3.6,3.6,0,0,0,.4.9l.6.5a1.6,1.6,0,0,0,.9.3h.7l.6-.3a.8.8,0,0,0,.4-.4l.3-.5V55.7a1.3,1.3,0,0,0-.3-.5.8.8,0,0,0-.4-.4.5.5,0,0,0-.5-.3H174a1.5,1.5,0,0,0-.9.2,1.7,1.7,0,0,0-.6.6,1.9,1.9,0,0,0-.4.9c0,.3-.1.7-.1,1.1Z"/><path d="M182.5,60.7V54.5h-1.2v-.7h1.2V53a2.2,2.2,0,0,1,.1-.9,1.6,1.6,0,0,1,.4-.7l.7-.4.8-.2h.8v.7h-.7a1.1,1.1,0,0,0-1,.4,1.6,1.6,0,0,0-.4,1.1v.8h1.7v.7h-1.7v6.2Z"/><path d="M185.8,57.2a5.9,5.9,0,0,1,.2-1.4,4.1,4.1,0,0,1,.7-1.1,1.6,1.6,0,0,1,.9-.7,2.8,2.8,0,0,1,1.3-.3,2.4,2.4,0,0,1,1.2.3,2.3,2.3,0,0,1,1,.7,2.4,2.4,0,0,1,.6,1.1,3.2,3.2,0,0,1,.2,1.4v.2a3.4,3.4,0,0,1-.2,1.4,3,3,0,0,1-.6,1.1l-1,.7-1.2.2-1.3-.2a2.2,2.2,0,0,1-.9-.7l-.7-1.1a6.8,6.8,0,0,1-.2-1.4Zm.8.2a3.4,3.4,0,0,0,.1,1,1.9,1.9,0,0,0,.5.9,2.3,2.3,0,0,0,.7.7l1,.2,1-.2a2.3,2.3,0,0,0,.7-.7,1.9,1.9,0,0,0,.4-.9,3.6,3.6,0,0,0,.2-1v-.2a3.6,3.6,0,0,0-.2-1.1,3.6,3.6,0,0,0-.4-.9,1.3,1.3,0,0,0-.7-.6,1.8,1.8,0,0,0-1-.2,1.6,1.6,0,0,0-1,.2,1.3,1.3,0,0,0-.7.6,4.1,4.1,0,0,0-.5.9,3.7,3.7,0,0,0-.1,1.1Z"/><path d="M196.7,54.5h-1.2l-.6.4-.4.5a1.1,1.1,0,0,0-.2.6v4.7h-.8V53.8h.8v1.1a2.2,2.2,0,0,1,.7-.9,2.1,2.1,0,0,1,1.2-.3h.5Z"/><path d="M201.2,60.7V51.5h4l1,.4.6.8a3.6,3.6,0,0,1,.2,1.1c0,.2-.1.4-.1.6a3.3,3.3,0,0,1-.3.6c-.1.2-.3.3-.5.5l-.6.3a1.3,1.3,0,0,1,.8.3l.5.5a2.1,2.1,0,0,1,.4.6,2.2,2.2,0,0,1,.1.8,3.6,3.6,0,0,1-.2,1.1,1.6,1.6,0,0,1-.6.8,2,2,0,0,1-.9.5l-1.3.2Zm.8-5.1h2.1a2.5,2.5,0,0,0,1.6-.5,1.7,1.7,0,0,0,.5-1.2,1.7,1.7,0,0,0-.6-1.4,3.1,3.1,0,0,0-1.6-.4h-2Zm0,.7V60h3.3c.2-.1.5-.2.6-.4a1,1,0,0,0,.5-.6,1.9,1.9,0,0,0,.1-.8,1.7,1.7,0,0,0-.1-.7l-.4-.6-.7-.4H202Z"/><path d="M211.7,60.8l-1.3-.2a3.1,3.1,0,0,1-.9-.7,4.1,4.1,0,0,1-.7-1.1,5.1,5.1,0,0,1-.2-1.3v-.3a5.9,5.9,0,0,1,.2-1.4,3,3,0,0,1,.7-1.1,1.5,1.5,0,0,1,.9-.7,2.3,2.3,0,0,1,1.1-.3l1.2.2a2.7,2.7,0,0,1,.8.7,2.1,2.1,0,0,1,.6,1,5.1,5.1,0,0,1,.2,1.3v.4h-4.9v.2a3.4,3.4,0,0,0,.1,1,2.6,2.6,0,0,0,.5.9l.7.6,1,.2,1.1-.2a2.7,2.7,0,0,0,.8-.7l.5.3-.4.5-.5.4-.7.2Zm-.2-6.4h-.8l-.6.5a1.8,1.8,0,0,0-.5.7,3,3,0,0,0-.2,1h4.1c0-.3-.1-.6-.1-.8a5.9,5.9,0,0,0-.4-.8l-.6-.5Z"/><path d="M216.9,52.1v1.7h1.4v.7h-1.4V59c0,.3,0,.5.1.6a.5.5,0,0,0,.2.4h1.2v.6H217a.5.5,0,0,1-.4-.3.5.5,0,0,1-.3-.5,2,2,0,0,1-.2-.9V54.5h-1.2v-.7h1.2V52.1Z"/><path d="M221.1,52.1v1.7h1.4v.7h-1.4V59c0,.3,0,.5.1.6a.5.5,0,0,0,.2.4h1.2v.6h-1.4c-.2,0-.3-.1-.5-.3l-.3-.5c0-.2-.1-.5-.1-.9V54.5h-1.2v-.7h1.2V52.1Z"/><path d="M226.7,60.8l-1.2-.2-1-.7a3.9,3.9,0,0,1-.6-1.1,2.7,2.7,0,0,1-.2-1.3v-.3a3.2,3.2,0,0,1,.2-1.4,5.4,5.4,0,0,1,.6-1.1,1.7,1.7,0,0,1,1-.7,2,2,0,0,1,1.1-.3l1.2.2a2.7,2.7,0,0,1,.8.7,3.1,3.1,0,0,1,.5,1,2.7,2.7,0,0,1,.2,1.3v.4h-4.9v.2a3.6,3.6,0,0,0,.2,1,2.6,2.6,0,0,0,.5.9l.7.6,1,.2,1.1-.2.8-.7.5.3-.4.5-.5.4-.7.2Zm-.1-6.4h-.8a1.5,1.5,0,0,0-.6.5,1.8,1.8,0,0,0-.5.7l-.3,1h4.2a1.9,1.9,0,0,0-.2-.8l-.3-.8-.7-.5Z"/><path d="M234,54.5h-1.2l-.6.4-.4.5a1.1,1.1,0,0,0-.2.6v4.7h-.8V53.8h.7v1.1a1.6,1.6,0,0,1,.7-.9,2.1,2.1,0,0,1,1.2-.3h.5Z"/><path d="M243.7,58.4c0-.2,0-.5-.1-.6a2.1,2.1,0,0,0-.4-.6,2,2,0,0,0-.8-.4l-1.2-.4-1.2-.5a3.1,3.1,0,0,1-1-.5l-.6-.7a3,3,0,0,1-.2-1,3.6,3.6,0,0,1,.2-1l.7-.7.9-.5,1.3-.2,1.3.2,1,.6.7.9a3.6,3.6,0,0,1,.2,1.1h-.8a1.9,1.9,0,0,0-.2-.8,1.6,1.6,0,0,0-.4-.7,2,2,0,0,0-.8-.4,1.6,1.6,0,0,0-1-.2h-1l-.7.4c-.2.2-.4.3-.5.5a2,2,0,0,0-.1.7,1.3,1.3,0,0,0,.1.6,1,1,0,0,0,.4.5l.8.5,1.2.4,1.3.4.9.6a1.3,1.3,0,0,1,.6.7,2.6,2.6,0,0,1,0,2,2.7,2.7,0,0,1-.7.8l-1,.5h-2.1l-.8-.3-.7-.3a3.4,3.4,0,0,1-.6-.6,4.3,4.3,0,0,1-.4-.7c0-.2-.1-.5-.1-.8h.8a2.4,2.4,0,0,0,.2.9l.6.7.9.4h1l.9-.2a1.9,1.9,0,0,0,.8-.3c.2-.2.4-.3.5-.6A1.5,1.5,0,0,0,243.7,58.4Z"/><path d="M246.9,60.7h-.8V50.9h.8Z"/><path d="M251.6,60.8l-1.2-.2-1-.7a2.4,2.4,0,0,1-.6-1.1,2.8,2.8,0,0,1-.3-1.3v-.3a3.2,3.2,0,0,1,.3-1.4,2,2,0,0,1,.6-1.1,1.8,1.8,0,0,1,.9-.7,2.7,2.7,0,0,1,1.2-.3l1.1.2a2.2,2.2,0,0,1,.9.7,3.1,3.1,0,0,1,.5,1,5.1,5.1,0,0,1,.2,1.3v.4h-4.9v.2a1.8,1.8,0,0,0,.2,1,2.5,2.5,0,0,0,.4.9l.8.6.9.2,1.1-.2.9-.7.4.3-.4.5-.5.4-.7.2Zm-.1-6.4h-.8a1.8,1.8,0,0,0-.7.5,1.6,1.6,0,0,0-.4.7,2.9,2.9,0,0,0-.3,1h4.1a1.9,1.9,0,0,0-.1-.8,2,2,0,0,0-.4-.8c-.1-.2-.3-.3-.6-.5Z"/><path d="M258.3,60.8l-1.2-.2-1-.7a2.4,2.4,0,0,1-.6-1.1,2.8,2.8,0,0,1-.3-1.3v-.3a3.2,3.2,0,0,1,.3-1.4,2.9,2.9,0,0,1,.6-1.1,1.7,1.7,0,0,1,1-.7,2,2,0,0,1,1.1-.3l1.1.2a2.2,2.2,0,0,1,.9.7,3.1,3.1,0,0,1,.5,1,5.1,5.1,0,0,1,.2,1.3v.4H256v.2a3.6,3.6,0,0,0,.2,1,1.6,1.6,0,0,0,.5.9l.7.6,1,.2,1-.2.9-.7.5.3-.4.5-.6.4-.6.2Zm-.1-6.4h-.8a1.8,1.8,0,0,0-.7.5,1.6,1.6,0,0,0-.4.7,2.9,2.9,0,0,0-.3,1h4.1a1.9,1.9,0,0,0-.1-.8,2,2,0,0,0-.4-.8c-.1-.2-.3-.3-.6-.5Z"/><path d="M267.9,57.3a6.8,6.8,0,0,1-.2,1.5,5.4,5.4,0,0,1-.5,1.1,2.7,2.7,0,0,1-.8.7l-1.1.2-1.3-.2-.9-.8v3.5h-.7V53.8h.7v1a2.4,2.4,0,0,1,.9-.8,2.8,2.8,0,0,1,1.3-.3,2,2,0,0,1,1.1.3,1.8,1.8,0,0,1,.8.7,2.8,2.8,0,0,1,.5,1.1,5.9,5.9,0,0,1,.2,1.4Zm-.8-.1a3.7,3.7,0,0,0-.1-1.1,1.9,1.9,0,0,0-.4-.9.9.9,0,0,0-.6-.6,1.5,1.5,0,0,0-.9-.2h-.7a.9.9,0,0,0-.6.3l-.4.4-.3.5V59l.3.5.5.3.5.3h.7l.9-.2.6-.6a3.6,3.6,0,0,0,.4-.9,4.9,4.9,0,0,0,.1-1.2Z"/><path class="cls-2" d="M66,11.4h5.3v2.3H62.5V12.4l5.2-9.2H62.5V.9h8.7V2.2Z"/></svg>